<svg width="645" height="240" viewBox="0 0 645 240" fill="none" xmlns="http://www.w3.org/2000/svg">
<rect x="1.5" y="1.5" width="642" height="237" fill="white" stroke="#787DF9" stroke-width="3" stroke-dasharray="9 9"/>
<path d="M299.293 93.2929C298.902 93.6834 298.902 94.3166 299.293 94.7071L305.657 101.071C306.047 101.462 306.681 101.462 307.071 101.071C307.462 100.681 307.462 100.047 307.071 99.6569L301.414 94L307.071 88.3431C307.462 87.9526 307.462 87.3195 307.071 86.9289C306.681 86.5384 306.047 86.5384 305.657 86.9289L299.293 93.2929ZM344.207 94.7071C344.598 94.3166 344.598 93.6834 344.207 93.2929L337.843 86.9289C337.453 86.5384 336.819 86.5384 336.429 86.9289C336.038 87.3195 336.038 87.9526 336.429 88.3431L342.086 94L336.429 99.6569C336.038 100.047 336.038 100.681 336.429 101.071C336.819 101.462 337.453 101.462 337.843 101.071L344.207 94.7071ZM300 95H343.5V93H300V95Z" fill="#2C2C31"/>
<path d="M132.307 72.1836H128.418C128.347 71.6805 128.202 71.2337 127.983 70.843C127.764 70.4465 127.483 70.1091 127.14 69.831C126.796 69.5528 126.4 69.3397 125.95 69.1918C125.506 69.0438 125.024 68.9698 124.503 68.9698C123.562 68.9698 122.742 69.2036 122.044 69.6712C121.345 70.1328 120.804 70.8075 120.419 71.6953C120.034 72.5772 119.842 73.6484 119.842 74.9091C119.842 76.2053 120.034 77.2943 120.419 78.1761C120.81 79.058 121.354 79.7238 122.053 80.1737C122.751 80.6235 123.559 80.8484 124.476 80.8484C124.991 80.8484 125.468 80.7803 125.906 80.6442C126.35 80.508 126.743 80.3098 127.086 80.0494C127.43 79.783 127.714 79.4605 127.939 79.0817C128.17 78.7029 128.329 78.2708 128.418 77.7855L132.307 77.8033C132.206 78.6378 131.954 79.4427 131.552 80.218C131.155 80.9875 130.62 81.677 129.945 82.2866C129.276 82.8903 128.477 83.3697 127.548 83.7248C126.625 84.074 125.58 84.2486 124.414 84.2486C122.793 84.2486 121.342 83.8816 120.064 83.1477C118.792 82.4138 117.785 81.3514 117.046 79.9606C116.312 78.5697 115.945 76.8859 115.945 74.9091C115.945 72.9264 116.318 71.2396 117.063 69.8487C117.809 68.4579 118.821 67.3984 120.1 66.6705C121.378 65.9366 122.816 65.5696 124.414 65.5696C125.468 65.5696 126.444 65.7176 127.344 66.0135C128.249 66.3094 129.051 66.7415 129.75 67.3097C130.448 67.8719 131.016 68.5614 131.454 69.3782C131.898 70.195 132.182 71.1301 132.307 72.1836ZM138.774 65.8182V84H134.992V65.8182H138.774ZM141.804 84V70.3636H145.586V84H141.804ZM143.704 68.6058C143.141 68.6058 142.659 68.4194 142.256 68.0465C141.86 67.6677 141.662 67.215 141.662 66.6882C141.662 66.1674 141.86 65.7205 142.256 65.3477C142.659 64.9689 143.141 64.7795 143.704 64.7795C144.266 64.7795 144.745 64.9689 145.142 65.3477C145.544 65.7205 145.745 66.1674 145.745 66.6882C145.745 67.215 145.544 67.6677 145.142 68.0465C144.745 68.4194 144.266 68.6058 143.704 68.6058ZM154.83 84.2663C153.427 84.2663 152.22 83.9822 151.208 83.4141C150.201 82.84 149.426 82.0291 148.882 80.9815C148.337 79.928 148.065 78.6822 148.065 77.244C148.065 75.8413 148.337 74.6102 148.882 73.5508C149.426 72.4914 150.192 71.6657 151.181 71.0739C152.175 70.482 153.341 70.1861 154.679 70.1861C155.578 70.1861 156.416 70.3311 157.191 70.6211C157.972 70.9052 158.653 71.3343 159.233 71.9084C159.819 72.4825 160.275 73.2045 160.6 74.0746C160.926 74.9387 161.089 75.9508 161.089 77.1108V78.1495H149.574V75.8058H157.529C157.529 75.2612 157.41 74.7789 157.173 74.3587C156.937 73.9384 156.608 73.61 156.188 73.3732C155.774 73.1306 155.291 73.0092 154.741 73.0092C154.167 73.0092 153.658 73.1424 153.214 73.4087C152.776 73.6692 152.433 74.0213 152.184 74.4652C151.936 74.9032 151.808 75.3915 151.802 75.93V78.1584C151.802 78.8331 151.927 79.4161 152.175 79.9073C152.43 80.3986 152.788 80.7773 153.249 81.0437C153.711 81.31 154.259 81.4432 154.892 81.4432C155.312 81.4432 155.697 81.384 156.046 81.2656C156.395 81.1473 156.694 80.9697 156.943 80.733C157.191 80.4962 157.381 80.2062 157.511 79.8629L161.009 80.0938C160.831 80.9342 160.467 81.6681 159.917 82.2955C159.372 82.9169 158.668 83.4022 157.804 83.7514C156.946 84.0947 155.954 84.2663 154.83 84.2663ZM167.339 76.1165V84H163.557V70.3636H167.161V72.7695H167.321C167.623 71.9764 168.129 71.3491 168.839 70.8874C169.549 70.4199 170.41 70.1861 171.422 70.1861C172.369 70.1861 173.195 70.3932 173.899 70.8075C174.604 71.2218 175.151 71.8137 175.542 72.5831C175.932 73.3466 176.128 74.258 176.128 75.3175V84H172.346V75.9922C172.352 75.1577 172.139 74.5066 171.706 74.0391C171.274 73.5656 170.68 73.3288 169.922 73.3288C169.413 73.3288 168.963 73.4383 168.573 73.6573C168.188 73.8763 167.886 74.1959 167.667 74.6161C167.454 75.0304 167.344 75.5305 167.339 76.1165ZM186.362 70.3636V73.2045H178.15V70.3636H186.362ZM180.014 67.0966H183.796V79.8097C183.796 80.1589 183.849 80.4311 183.956 80.6264C184.062 80.8158 184.21 80.949 184.4 81.0259C184.595 81.1029 184.82 81.1413 185.074 81.1413C185.252 81.1413 185.429 81.1265 185.607 81.0969C185.784 81.0614 185.921 81.0348 186.015 81.017L186.61 83.8313C186.421 83.8905 186.154 83.9586 185.811 84.0355C185.468 84.1184 185.051 84.1687 184.559 84.1864C183.648 84.2219 182.849 84.1006 182.162 83.8224C181.482 83.5443 180.952 83.1122 180.573 82.5263C180.194 81.9403 180.008 81.2005 180.014 80.3068V67.0966ZM87.3647 112.909C87.3647 110.707 87.6577 108.68 88.2437 106.828C88.8355 104.975 89.7381 103.259 90.9514 101.679H94.5647C94.103 102.265 93.6739 102.981 93.2774 103.827C92.8808 104.667 92.5346 105.591 92.2387 106.597C91.9428 107.603 91.7119 108.645 91.5462 109.722C91.3805 110.793 91.2976 111.856 91.2976 112.909C91.2976 114.312 91.4397 115.729 91.7238 117.162C92.0138 118.588 92.4044 119.914 92.8956 121.139C93.3928 122.364 93.9491 123.367 94.5647 124.148H90.9514C89.7381 122.568 88.8355 120.852 88.2437 118.999C87.6577 117.147 87.3647 115.117 87.3647 112.909ZM96.8307 122V103.818H104.111C105.448 103.818 106.564 104.016 107.458 104.413C108.351 104.81 109.023 105.36 109.473 106.064C109.923 106.763 110.148 107.568 110.148 108.479C110.148 109.189 110.005 109.814 109.721 110.352C109.437 110.885 109.047 111.323 108.549 111.666C108.058 112.004 107.496 112.243 106.863 112.385V112.563C107.555 112.592 108.203 112.788 108.807 113.149C109.417 113.51 109.911 114.016 110.29 114.667C110.668 115.312 110.858 116.081 110.858 116.975C110.858 117.94 110.618 118.801 110.139 119.559C109.665 120.31 108.964 120.905 108.035 121.343C107.105 121.781 105.96 122 104.599 122H96.8307ZM100.675 118.857H103.809C104.88 118.857 105.661 118.653 106.152 118.245C106.644 117.83 106.889 117.28 106.889 116.593C106.889 116.09 106.768 115.646 106.525 115.262C106.283 114.877 105.936 114.575 105.487 114.356C105.043 114.137 104.513 114.028 103.898 114.028H100.675V118.857ZM100.675 111.426H103.525C104.051 111.426 104.519 111.335 104.927 111.151C105.342 110.962 105.667 110.696 105.904 110.352C106.147 110.009 106.268 109.598 106.268 109.118C106.268 108.461 106.034 107.932 105.567 107.529C105.105 107.127 104.448 106.925 103.596 106.925H100.675V111.426ZM122.033 116.194V108.364H125.815V122H122.184V119.523H122.042C121.734 120.322 121.222 120.964 120.506 121.45C119.795 121.935 118.928 122.178 117.905 122.178C116.993 122.178 116.191 121.97 115.499 121.556C114.806 121.142 114.265 120.553 113.874 119.789C113.489 119.026 113.294 118.112 113.288 117.046V108.364H117.07V116.371C117.076 117.176 117.292 117.813 117.718 118.28C118.144 118.748 118.715 118.982 119.432 118.982C119.887 118.982 120.313 118.878 120.71 118.671C121.106 118.458 121.426 118.144 121.669 117.73C121.917 117.315 122.039 116.804 122.033 116.194ZM140.186 112.252L136.723 112.465C136.664 112.169 136.537 111.903 136.342 111.666C136.146 111.424 135.889 111.231 135.569 111.089C135.256 110.941 134.88 110.867 134.442 110.867C133.856 110.867 133.362 110.991 132.959 111.24C132.557 111.483 132.355 111.808 132.355 112.217C132.355 112.542 132.486 112.817 132.746 113.042C133.006 113.267 133.453 113.448 134.087 113.584L136.555 114.081C137.88 114.353 138.869 114.791 139.52 115.395C140.171 115.999 140.496 116.792 140.496 117.774C140.496 118.668 140.233 119.452 139.706 120.127C139.185 120.801 138.469 121.328 137.558 121.707C136.652 122.08 135.608 122.266 134.424 122.266C132.619 122.266 131.181 121.891 130.109 121.139C129.044 120.381 128.42 119.351 128.236 118.049L131.956 117.854C132.068 118.404 132.341 118.825 132.773 119.115C133.205 119.399 133.758 119.541 134.433 119.541C135.096 119.541 135.628 119.414 136.031 119.159C136.439 118.899 136.646 118.564 136.652 118.156C136.646 117.813 136.501 117.531 136.217 117.312C135.933 117.088 135.495 116.916 134.903 116.798L132.542 116.327C131.21 116.061 130.219 115.599 129.568 114.942C128.923 114.285 128.6 113.448 128.6 112.43C128.6 111.554 128.837 110.799 129.31 110.166C129.79 109.533 130.461 109.044 131.326 108.701C132.196 108.358 133.214 108.186 134.38 108.186C136.102 108.186 137.457 108.55 138.446 109.278C139.44 110.006 140.02 110.997 140.186 112.252ZM142.878 122V108.364H146.66V122H142.878ZM144.778 106.606C144.215 106.606 143.733 106.419 143.331 106.047C142.934 105.668 142.736 105.215 142.736 104.688C142.736 104.167 142.934 103.721 143.331 103.348C143.733 102.969 144.215 102.779 144.778 102.779C145.34 102.779 145.819 102.969 146.216 103.348C146.618 103.721 146.82 104.167 146.82 104.688C146.82 105.215 146.618 105.668 146.216 106.047C145.819 106.419 145.34 106.606 144.778 106.606ZM153.471 114.116V122H149.689V108.364H153.294V110.77H153.454C153.755 109.976 154.261 109.349 154.972 108.887C155.682 108.42 156.543 108.186 157.555 108.186C158.502 108.186 159.328 108.393 160.032 108.808C160.736 109.222 161.284 109.814 161.674 110.583C162.065 111.347 162.26 112.258 162.26 113.317V122H158.478V113.992C158.484 113.158 158.271 112.507 157.839 112.039C157.407 111.566 156.812 111.329 156.055 111.329C155.546 111.329 155.096 111.438 154.705 111.657C154.321 111.876 154.019 112.196 153.8 112.616C153.587 113.03 153.477 113.531 153.471 114.116ZM171.456 122.266C170.053 122.266 168.846 121.982 167.833 121.414C166.827 120.84 166.052 120.029 165.508 118.982C164.963 117.928 164.691 116.682 164.691 115.244C164.691 113.841 164.963 112.61 165.508 111.551C166.052 110.491 166.818 109.666 167.807 109.074C168.801 108.482 169.967 108.186 171.305 108.186C172.204 108.186 173.042 108.331 173.817 108.621C174.598 108.905 175.279 109.334 175.859 109.908C176.445 110.482 176.901 111.205 177.226 112.075C177.552 112.939 177.715 113.951 177.715 115.111V116.15H166.2V113.806H174.155C174.155 113.261 174.036 112.779 173.799 112.359C173.563 111.938 173.234 111.61 172.814 111.373C172.4 111.131 171.917 111.009 171.367 111.009C170.793 111.009 170.284 111.142 169.84 111.409C169.402 111.669 169.059 112.021 168.81 112.465C168.561 112.903 168.434 113.391 168.428 113.93V116.158C168.428 116.833 168.553 117.416 168.801 117.907C169.056 118.399 169.414 118.777 169.875 119.044C170.337 119.31 170.885 119.443 171.518 119.443C171.938 119.443 172.323 119.384 172.672 119.266C173.021 119.147 173.32 118.97 173.569 118.733C173.817 118.496 174.007 118.206 174.137 117.863L177.635 118.094C177.457 118.934 177.093 119.668 176.543 120.295C175.998 120.917 175.294 121.402 174.43 121.751C173.572 122.095 172.58 122.266 171.456 122.266ZM191.528 112.252L188.066 112.465C188.007 112.169 187.88 111.903 187.684 111.666C187.489 111.424 187.232 111.231 186.912 111.089C186.598 110.941 186.222 110.867 185.784 110.867C185.199 110.867 184.704 110.991 184.302 111.24C183.899 111.483 183.698 111.808 183.698 112.217C183.698 112.542 183.828 112.817 184.089 113.042C184.349 113.267 184.796 113.448 185.429 113.584L187.897 114.081C189.223 114.353 190.212 114.791 190.863 115.395C191.514 115.999 191.839 116.792 191.839 117.774C191.839 118.668 191.576 119.452 191.049 120.127C190.528 120.801 189.812 121.328 188.901 121.707C187.995 122.08 186.95 122.266 185.767 122.266C183.962 122.266 182.523 121.891 181.452 121.139C180.387 120.381 179.762 119.351 179.579 118.049L183.299 117.854C183.411 118.404 183.683 118.825 184.115 119.115C184.548 119.399 185.101 119.541 185.776 119.541C186.438 119.541 186.971 119.414 187.374 119.159C187.782 118.899 187.989 118.564 187.995 118.156C187.989 117.813 187.844 117.531 187.56 117.312C187.276 117.088 186.838 116.916 186.246 116.798L183.885 116.327C182.553 116.061 181.562 115.599 180.911 114.942C180.265 114.285 179.943 113.448 179.943 112.43C179.943 111.554 180.18 110.799 180.653 110.166C181.133 109.533 181.804 109.044 182.668 108.701C183.538 108.358 184.556 108.186 185.722 108.186C187.445 108.186 188.8 108.55 189.788 109.278C190.783 110.006 191.363 110.997 191.528 112.252ZM205.567 112.252L202.104 112.465C202.045 112.169 201.918 111.903 201.722 111.666C201.527 111.424 201.27 111.231 200.95 111.089C200.636 110.941 200.261 110.867 199.823 110.867C199.237 110.867 198.742 110.991 198.34 111.24C197.938 111.483 197.736 111.808 197.736 112.217C197.736 112.542 197.866 112.817 198.127 113.042C198.387 113.267 198.834 113.448 199.467 113.584L201.936 114.081C203.261 114.353 204.25 114.791 204.901 115.395C205.552 115.999 205.877 116.792 205.877 117.774C205.877 118.668 205.614 119.452 205.087 120.127C204.566 120.801 203.85 121.328 202.939 121.707C202.033 122.08 200.989 122.266 199.805 122.266C198 122.266 196.561 121.891 195.49 121.139C194.425 120.381 193.8 119.351 193.617 118.049L197.337 117.854C197.449 118.404 197.721 118.825 198.154 119.115C198.586 119.399 199.139 119.541 199.814 119.541C200.477 119.541 201.009 119.414 201.412 119.159C201.82 118.899 202.027 118.564 202.033 118.156C202.027 117.813 201.882 117.531 201.598 117.312C201.314 117.088 200.876 116.916 200.284 116.798L197.923 116.327C196.591 116.061 195.6 115.599 194.949 114.942C194.304 114.285 193.981 113.448 193.981 112.43C193.981 111.554 194.218 110.799 194.691 110.166C195.171 109.533 195.842 109.044 196.706 108.701C197.576 108.358 198.594 108.186 199.76 108.186C201.483 108.186 202.838 108.55 203.826 109.278C204.821 110.006 205.401 110.997 205.567 112.252ZM214.633 114.711C214.633 116.919 214.337 118.949 213.745 120.801C213.159 122.654 212.26 124.37 211.046 125.951H207.433C207.895 125.365 208.324 124.649 208.72 123.802C209.117 122.956 209.463 122.033 209.759 121.032C210.055 120.026 210.286 118.984 210.452 117.907C210.617 116.83 210.7 115.765 210.7 114.711C210.7 113.309 210.555 111.894 210.265 110.468C209.981 109.035 209.59 107.71 209.093 106.49C208.602 105.265 208.049 104.262 207.433 103.481H211.046C212.26 105.061 213.159 106.777 213.745 108.63C214.337 110.482 214.633 112.51 214.633 114.711Z" fill="#2C2C31"/>
<path d="M428.003 103V84.8182H440.254V87.9876H431.847V92.32H439.624V95.4893H431.847V99.8306H440.29V103H428.003ZM447.021 95.1165V103H443.239V89.3636H446.844V91.7695H447.003C447.305 90.9764 447.811 90.3491 448.522 89.8874C449.232 89.4199 450.093 89.1861 451.105 89.1861C452.052 89.1861 452.878 89.3932 453.582 89.8075C454.286 90.2218 454.834 90.8137 455.224 91.5831C455.615 92.3466 455.81 93.258 455.81 94.3175V103H452.028V94.9922C452.034 94.1577 451.821 93.5066 451.389 93.0391C450.957 92.5656 450.362 92.3288 449.605 92.3288C449.096 92.3288 448.646 92.4383 448.255 92.6573C447.87 92.8763 447.569 93.1959 447.35 93.6161C447.137 94.0304 447.027 94.5305 447.021 95.1165ZM464.934 108.398C463.709 108.398 462.659 108.229 461.783 107.892C460.913 107.56 460.22 107.107 459.705 106.533C459.19 105.959 458.856 105.314 458.702 104.598L462.2 104.127C462.307 104.4 462.475 104.654 462.706 104.891C462.937 105.128 463.242 105.317 463.621 105.459C464.005 105.607 464.473 105.681 465.023 105.681C465.846 105.681 466.524 105.48 467.056 105.077C467.595 104.681 467.864 104.015 467.864 103.08V100.585H467.704C467.539 100.964 467.29 101.322 466.959 101.659C466.627 101.997 466.201 102.272 465.68 102.485C465.159 102.698 464.538 102.805 463.816 102.805C462.792 102.805 461.86 102.568 461.019 102.094C460.185 101.615 459.519 100.884 459.022 99.9016C458.531 98.9132 458.285 97.6644 458.285 96.1552C458.285 94.6104 458.536 93.3202 459.04 92.2844C459.543 91.2487 460.211 90.4734 461.046 89.9585C461.886 89.4435 462.807 89.1861 463.807 89.1861C464.57 89.1861 465.21 89.3163 465.725 89.5767C466.239 89.8312 466.654 90.1508 466.967 90.5355C467.287 90.9143 467.533 91.2872 467.704 91.6541H467.846V89.3636H471.602V103.133C471.602 104.293 471.318 105.264 470.749 106.045C470.181 106.826 469.394 107.412 468.388 107.803C467.388 108.199 466.237 108.398 464.934 108.398ZM465.014 99.9638C465.624 99.9638 466.139 99.8129 466.559 99.511C466.985 99.2032 467.311 98.7653 467.536 98.1971C467.766 97.623 467.882 96.9364 467.882 96.1374C467.882 95.3384 467.769 94.646 467.545 94.06C467.32 93.4682 466.994 93.0095 466.568 92.6839C466.142 92.3584 465.624 92.1957 465.014 92.1957C464.393 92.1957 463.869 92.3643 463.443 92.7017C463.017 93.0331 462.694 93.4948 462.475 94.0866C462.256 94.6785 462.147 95.3621 462.147 96.1374C462.147 96.9246 462.256 97.6052 462.475 98.1793C462.7 98.7475 463.023 99.1884 463.443 99.5021C463.869 99.8099 464.393 99.9638 465.014 99.9638ZM474.611 103V89.3636H478.393V103H474.611ZM476.511 87.6058C475.949 87.6058 475.467 87.4194 475.064 87.0465C474.668 86.6677 474.469 86.215 474.469 85.6882C474.469 85.1674 474.668 84.7205 475.064 84.3477C475.467 83.9689 475.949 83.7795 476.511 83.7795C477.073 83.7795 477.553 83.9689 477.949 84.3477C478.352 84.7205 478.553 85.1674 478.553 85.6882C478.553 86.215 478.352 86.6677 477.949 87.0465C477.553 87.4194 477.073 87.6058 476.511 87.6058ZM485.205 95.1165V103H481.423V89.3636H485.027V91.7695H485.187C485.489 90.9764 485.995 90.3491 486.705 89.8874C487.415 89.4199 488.277 89.1861 489.289 89.1861C490.236 89.1861 491.061 89.3932 491.765 89.8075C492.47 90.2218 493.017 90.8137 493.408 91.5831C493.799 92.3466 493.994 93.258 493.994 94.3175V103H490.212V94.9922C490.218 94.1577 490.005 93.5066 489.573 93.0391C489.141 92.5656 488.546 92.3288 487.788 92.3288C487.279 92.3288 486.829 92.4383 486.439 92.6573C486.054 92.8763 485.752 93.1959 485.533 93.6161C485.32 94.0304 485.211 94.5305 485.205 95.1165ZM503.189 103.266C501.786 103.266 500.579 102.982 499.567 102.414C498.561 101.84 497.785 101.029 497.241 99.9815C496.696 98.928 496.424 97.6822 496.424 96.244C496.424 94.8413 496.696 93.6102 497.241 92.5508C497.785 91.4914 498.552 90.6657 499.54 90.0739C500.535 89.482 501.701 89.1861 503.038 89.1861C503.938 89.1861 504.775 89.3311 505.551 89.6211C506.332 89.9052 507.012 90.3343 507.592 90.9084C508.178 91.4825 508.634 92.2045 508.96 93.0746C509.285 93.9387 509.448 94.9508 509.448 96.1108V97.1495H497.933V94.8058H505.888C505.888 94.2612 505.77 93.7789 505.533 93.3587C505.296 92.9384 504.968 92.61 504.547 92.3732C504.133 92.1306 503.651 92.0092 503.1 92.0092C502.526 92.0092 502.017 92.1424 501.573 92.4087C501.135 92.6692 500.792 93.0213 500.543 93.4652C500.295 93.9032 500.168 94.3915 500.162 94.93V97.1584C500.162 97.8331 500.286 98.4161 500.535 98.9073C500.789 99.3986 501.147 99.7773 501.609 100.044C502.07 100.31 502.618 100.443 503.251 100.443C503.671 100.443 504.056 100.384 504.405 100.266C504.755 100.147 505.053 99.9697 505.302 99.733C505.551 99.4962 505.74 99.2062 505.87 98.8629L509.368 99.0938C509.19 99.9342 508.826 100.668 508.276 101.295C507.732 101.917 507.027 102.402 506.163 102.751C505.305 103.095 504.314 103.266 503.189 103.266ZM518.13 103.266C516.728 103.266 515.52 102.982 514.508 102.414C513.502 101.84 512.727 101.029 512.182 99.9815C511.638 98.928 511.366 97.6822 511.366 96.244C511.366 94.8413 511.638 93.6102 512.182 92.5508C512.727 91.4914 513.493 90.6657 514.482 90.0739C515.476 89.482 516.642 89.1861 517.98 89.1861C518.879 89.1861 519.717 89.3311 520.492 89.6211C521.273 89.9052 521.954 90.3343 522.534 90.9084C523.12 91.4825 523.576 92.2045 523.901 93.0746C524.227 93.9387 524.389 94.9508 524.389 96.1108V97.1495H512.875V94.8058H520.829C520.829 94.2612 520.711 93.7789 520.474 93.3587C520.237 92.9384 519.909 92.61 519.489 92.3732C519.074 92.1306 518.592 92.0092 518.042 92.0092C517.468 92.0092 516.959 92.1424 516.515 92.4087C516.077 92.6692 515.733 93.0213 515.485 93.4652C515.236 93.9032 515.109 94.3915 515.103 94.93V97.1584C515.103 97.8331 515.227 98.4161 515.476 98.9073C515.73 99.3986 516.089 99.7773 516.55 100.044C517.012 100.31 517.559 100.443 518.193 100.443C518.613 100.443 518.998 100.384 519.347 100.266C519.696 100.147 519.995 99.9697 520.243 99.733C520.492 99.4962 520.681 99.2062 520.812 98.8629L524.309 99.0938C524.132 99.9342 523.768 100.668 523.217 101.295C522.673 101.917 521.969 102.402 521.105 102.751C520.246 103.095 519.255 103.266 518.13 103.266ZM526.857 103V89.3636H530.524V91.7429H530.666C530.915 90.8965 531.332 90.2573 531.918 89.8253C532.504 89.3873 533.178 89.1683 533.942 89.1683C534.131 89.1683 534.335 89.1802 534.554 89.2038C534.773 89.2275 534.966 89.2601 535.132 89.3015V92.6573C534.954 92.604 534.708 92.5567 534.395 92.5153C534.081 92.4738 533.794 92.4531 533.534 92.4531C532.977 92.4531 532.48 92.5745 532.042 92.8171C531.61 93.0539 531.267 93.3853 531.012 93.8114C530.764 94.2376 530.639 94.7288 530.639 95.2852V103H526.857Z" fill="#2C2C31"/>
<path d="M269.869 154.818H274.61L279.617 167.034H279.83L284.837 154.818H289.578V173H285.849V161.166H285.698L280.993 172.911H278.454L273.748 161.121H273.598V173H269.869V154.818ZM296.562 173.257C295.692 173.257 294.917 173.107 294.236 172.805C293.556 172.497 293.017 172.044 292.621 171.446C292.23 170.843 292.035 170.091 292.035 169.191C292.035 168.434 292.174 167.798 292.452 167.283C292.73 166.768 293.109 166.353 293.588 166.04C294.068 165.726 294.612 165.489 295.222 165.33C295.837 165.17 296.482 165.057 297.157 164.992C297.95 164.909 298.589 164.832 299.075 164.761C299.56 164.684 299.912 164.572 300.131 164.424C300.35 164.276 300.46 164.057 300.46 163.767V163.714C300.46 163.152 300.282 162.717 299.927 162.409C299.578 162.101 299.081 161.947 298.436 161.947C297.755 161.947 297.213 162.098 296.811 162.4C296.408 162.696 296.142 163.069 296.012 163.518L292.514 163.234C292.692 162.406 293.041 161.69 293.562 161.086C294.082 160.476 294.754 160.009 295.577 159.683C296.405 159.352 297.364 159.186 298.453 159.186C299.211 159.186 299.936 159.275 300.628 159.452C301.327 159.63 301.945 159.905 302.484 160.278C303.028 160.651 303.457 161.13 303.771 161.716C304.085 162.296 304.242 162.992 304.242 163.803V173H300.655V171.109H300.548C300.329 171.535 300.036 171.911 299.67 172.237C299.303 172.556 298.862 172.808 298.347 172.991C297.832 173.169 297.237 173.257 296.562 173.257ZM297.645 170.647C298.202 170.647 298.693 170.538 299.119 170.319C299.545 170.094 299.88 169.792 300.122 169.413C300.365 169.035 300.486 168.605 300.486 168.126V166.679C300.368 166.756 300.205 166.827 299.998 166.892C299.797 166.951 299.569 167.007 299.314 167.061C299.06 167.108 298.805 167.152 298.551 167.194C298.296 167.229 298.066 167.262 297.858 167.292C297.415 167.357 297.027 167.46 296.695 167.602C296.364 167.744 296.107 167.937 295.923 168.179C295.74 168.416 295.648 168.712 295.648 169.067C295.648 169.582 295.834 169.976 296.207 170.248C296.586 170.514 297.065 170.647 297.645 170.647ZM310.958 165.116V173H307.176V159.364H310.78V161.77H310.94C311.242 160.976 311.748 160.349 312.458 159.887C313.168 159.42 314.029 159.186 315.042 159.186C315.988 159.186 316.814 159.393 317.518 159.808C318.223 160.222 318.77 160.814 319.161 161.583C319.551 162.347 319.747 163.258 319.747 164.317V173H315.965V164.992C315.971 164.158 315.758 163.507 315.326 163.039C314.894 162.566 314.299 162.329 313.541 162.329C313.032 162.329 312.582 162.438 312.192 162.657C311.807 162.876 311.505 163.196 311.286 163.616C311.073 164.03 310.964 164.531 310.958 165.116ZM326.616 173.257C325.746 173.257 324.971 173.107 324.29 172.805C323.609 172.497 323.071 172.044 322.674 171.446C322.284 170.843 322.088 170.091 322.088 169.191C322.088 168.434 322.227 167.798 322.506 167.283C322.784 166.768 323.163 166.353 323.642 166.04C324.121 165.726 324.666 165.489 325.275 165.33C325.891 165.17 326.536 165.057 327.211 164.992C328.004 164.909 328.643 164.832 329.128 164.761C329.614 164.684 329.966 164.572 330.185 164.424C330.404 164.276 330.513 164.057 330.513 163.767V163.714C330.513 163.152 330.336 162.717 329.981 162.409C329.631 162.101 329.134 161.947 328.489 161.947C327.809 161.947 327.267 162.098 326.865 162.4C326.462 162.696 326.196 163.069 326.066 163.518L322.568 163.234C322.745 162.406 323.094 161.69 323.615 161.086C324.136 160.476 324.808 160.009 325.631 159.683C326.459 159.352 327.418 159.186 328.507 159.186C329.265 159.186 329.99 159.275 330.682 159.452C331.38 159.63 331.999 159.905 332.538 160.278C333.082 160.651 333.511 161.13 333.825 161.716C334.138 162.296 334.295 162.992 334.295 163.803V173H330.709V171.109H330.602C330.383 171.535 330.09 171.911 329.723 172.237C329.356 172.556 328.915 172.808 328.4 172.991C327.886 173.169 327.291 173.257 326.616 173.257ZM327.699 170.647C328.255 170.647 328.747 170.538 329.173 170.319C329.599 170.094 329.933 169.792 330.176 169.413C330.419 169.035 330.54 168.605 330.54 168.126V166.679C330.422 166.756 330.259 166.827 330.052 166.892C329.85 166.951 329.623 167.007 329.368 167.061C329.114 167.108 328.859 167.152 328.605 167.194C328.35 167.229 328.119 167.262 327.912 167.292C327.468 167.357 327.081 167.46 326.749 167.602C326.418 167.744 326.16 167.937 325.977 168.179C325.793 168.416 325.702 168.712 325.702 169.067C325.702 169.582 325.888 169.976 326.261 170.248C326.64 170.514 327.119 170.647 327.699 170.647ZM343.373 178.398C342.148 178.398 341.097 178.229 340.221 177.892C339.351 177.56 338.659 177.107 338.144 176.533C337.629 175.959 337.295 175.314 337.141 174.598L340.639 174.127C340.745 174.4 340.914 174.654 341.145 174.891C341.375 175.128 341.68 175.317 342.059 175.459C342.444 175.607 342.911 175.681 343.462 175.681C344.284 175.681 344.962 175.48 345.495 175.077C346.033 174.681 346.303 174.015 346.303 173.08V170.585H346.143C345.977 170.964 345.729 171.322 345.397 171.659C345.066 171.997 344.639 172.272 344.119 172.485C343.598 172.698 342.976 172.805 342.254 172.805C341.23 172.805 340.298 172.568 339.458 172.094C338.623 171.615 337.957 170.884 337.46 169.902C336.969 168.913 336.723 167.664 336.723 166.155C336.723 164.61 336.975 163.32 337.478 162.284C337.981 161.249 338.65 160.473 339.484 159.958C340.325 159.444 341.245 159.186 342.245 159.186C343.009 159.186 343.648 159.316 344.163 159.577C344.678 159.831 345.092 160.151 345.406 160.536C345.726 160.914 345.971 161.287 346.143 161.654H346.285V159.364H350.04V173.133C350.04 174.293 349.756 175.264 349.188 176.045C348.62 176.826 347.833 177.412 346.826 177.803C345.826 178.199 344.675 178.398 343.373 178.398ZM343.453 169.964C344.062 169.964 344.577 169.813 344.998 169.511C345.424 169.203 345.749 168.765 345.974 168.197C346.205 167.623 346.32 166.936 346.32 166.137C346.32 165.338 346.208 164.646 345.983 164.06C345.758 163.468 345.433 163.009 345.006 162.684C344.58 162.358 344.062 162.196 343.453 162.196C342.831 162.196 342.308 162.364 341.881 162.702C341.455 163.033 341.133 163.495 340.914 164.087C340.695 164.679 340.585 165.362 340.585 166.137C340.585 166.925 340.695 167.605 340.914 168.179C341.139 168.748 341.461 169.188 341.881 169.502C342.308 169.81 342.831 169.964 343.453 169.964ZM359.264 173.266C357.862 173.266 356.654 172.982 355.642 172.414C354.636 171.84 353.861 171.029 353.316 169.982C352.772 168.928 352.499 167.682 352.499 166.244C352.499 164.841 352.772 163.61 353.316 162.551C353.861 161.491 354.627 160.666 355.615 160.074C356.61 159.482 357.776 159.186 359.113 159.186C360.013 159.186 360.85 159.331 361.626 159.621C362.407 159.905 363.088 160.334 363.668 160.908C364.254 161.482 364.709 162.205 365.035 163.075C365.36 163.939 365.523 164.951 365.523 166.111V167.15H354.009V164.806H361.963C361.963 164.261 361.845 163.779 361.608 163.359C361.371 162.938 361.043 162.61 360.623 162.373C360.208 162.131 359.726 162.009 359.175 162.009C358.601 162.009 358.092 162.142 357.648 162.409C357.211 162.669 356.867 163.021 356.619 163.465C356.37 163.903 356.243 164.391 356.237 164.93V167.158C356.237 167.833 356.361 168.416 356.61 168.907C356.864 169.399 357.222 169.777 357.684 170.044C358.146 170.31 358.693 170.443 359.326 170.443C359.747 170.443 360.131 170.384 360.481 170.266C360.83 170.147 361.129 169.97 361.377 169.733C361.626 169.496 361.815 169.206 361.945 168.863L365.443 169.094C365.266 169.934 364.902 170.668 364.351 171.295C363.807 171.917 363.102 172.402 362.238 172.751C361.38 173.095 360.389 173.266 359.264 173.266ZM367.991 173V159.364H371.658V161.743H371.8C372.048 160.897 372.466 160.257 373.052 159.825C373.637 159.387 374.312 159.168 375.076 159.168C375.265 159.168 375.469 159.18 375.688 159.204C375.907 159.228 376.1 159.26 376.265 159.301V162.657C376.088 162.604 375.842 162.557 375.528 162.515C375.215 162.474 374.928 162.453 374.667 162.453C374.111 162.453 373.614 162.574 373.176 162.817C372.744 163.054 372.4 163.385 372.146 163.811C371.897 164.238 371.773 164.729 371.773 165.285V173H367.991Z" fill="#2C2C31"/>
</svg>
