<svg width="645" height="240" viewBox="0 0 645 240" fill="none" xmlns="http://www.w3.org/2000/svg">
<rect x="1.5" y="1.5" width="642" height="237" fill="white" stroke="#787DF9" stroke-width="3" stroke-dasharray="9 9"/>
<path d="M299.293 119.293C298.902 119.683 298.902 120.317 299.293 120.707L305.657 127.071C306.047 127.462 306.681 127.462 307.071 127.071C307.462 126.681 307.462 126.047 307.071 125.657L301.414 120L307.071 114.343C307.462 113.953 307.462 113.319 307.071 112.929C306.681 112.538 306.047 112.538 305.657 112.929L299.293 119.293ZM344.207 120.707C344.598 120.317 344.598 119.683 344.207 119.293L337.843 112.929C337.453 112.538 336.819 112.538 336.429 112.929C336.038 113.319 336.038 113.953 336.429 114.343L342.086 120L336.429 125.657C336.038 126.047 336.038 126.681 336.429 127.071C336.819 127.462 337.453 127.462 337.843 127.071L344.207 120.707ZM300 121H343.5V119H300V121Z" fill="#2C2C31"/>
<path d="M132.307 98.1836H128.418C128.347 97.6805 128.202 97.2337 127.983 96.843C127.764 96.4465 127.483 96.1091 127.14 95.831C126.796 95.5528 126.4 95.3397 125.95 95.1918C125.506 95.0438 125.024 94.9698 124.503 94.9698C123.562 94.9698 122.742 95.2036 122.044 95.6712C121.345 96.1328 120.804 96.8075 120.419 97.6953C120.034 98.5772 119.842 99.6484 119.842 100.909C119.842 102.205 120.034 103.294 120.419 104.176C120.81 105.058 121.354 105.724 122.053 106.174C122.751 106.623 123.559 106.848 124.476 106.848C124.991 106.848 125.468 106.78 125.906 106.644C126.35 106.508 126.743 106.31 127.086 106.049C127.43 105.783 127.714 105.46 127.939 105.082C128.17 104.703 128.329 104.271 128.418 103.786L132.307 103.803C132.206 104.638 131.954 105.443 131.552 106.218C131.155 106.987 130.62 107.677 129.945 108.287C129.276 108.89 128.477 109.37 127.548 109.725C126.625 110.074 125.58 110.249 124.414 110.249C122.793 110.249 121.342 109.882 120.064 109.148C118.792 108.414 117.785 107.351 117.046 105.961C116.312 104.57 115.945 102.886 115.945 100.909C115.945 98.9264 116.318 97.2396 117.063 95.8487C117.809 94.4579 118.821 93.3984 120.1 92.6705C121.378 91.9366 122.816 91.5696 124.414 91.5696C125.468 91.5696 126.444 91.7176 127.344 92.0135C128.249 92.3094 129.051 92.7415 129.75 93.3097C130.448 93.8719 131.016 94.5614 131.454 95.3782C131.898 96.195 132.182 97.1301 132.307 98.1836ZM138.774 91.8182V110H134.992V91.8182H138.774ZM141.804 110V96.3636H145.586V110H141.804ZM143.704 94.6058C143.141 94.6058 142.659 94.4194 142.256 94.0465C141.86 93.6677 141.662 93.215 141.662 92.6882C141.662 92.1674 141.86 91.7205 142.256 91.3477C142.659 90.9689 143.141 90.7795 143.704 90.7795C144.266 90.7795 144.745 90.9689 145.142 91.3477C145.544 91.7205 145.745 92.1674 145.745 92.6882C145.745 93.215 145.544 93.6677 145.142 94.0465C144.745 94.4194 144.266 94.6058 143.704 94.6058ZM154.83 110.266C153.427 110.266 152.22 109.982 151.208 109.414C150.201 108.84 149.426 108.029 148.882 106.982C148.337 105.928 148.065 104.682 148.065 103.244C148.065 101.841 148.337 100.61 148.882 99.5508C149.426 98.4914 150.192 97.6657 151.181 97.0739C152.175 96.482 153.341 96.1861 154.679 96.1861C155.578 96.1861 156.416 96.3311 157.191 96.6211C157.972 96.9052 158.653 97.3343 159.233 97.9084C159.819 98.4825 160.275 99.2045 160.6 100.075C160.926 100.939 161.089 101.951 161.089 103.111V104.15H149.574V101.806H157.529C157.529 101.261 157.41 100.779 157.173 100.359C156.937 99.9384 156.608 99.61 156.188 99.3732C155.774 99.1306 155.291 99.0092 154.741 99.0092C154.167 99.0092 153.658 99.1424 153.214 99.4087C152.776 99.6692 152.433 100.021 152.184 100.465C151.936 100.903 151.808 101.391 151.802 101.93V104.158C151.802 104.833 151.927 105.416 152.175 105.907C152.43 106.399 152.788 106.777 153.249 107.044C153.711 107.31 154.259 107.443 154.892 107.443C155.312 107.443 155.697 107.384 156.046 107.266C156.395 107.147 156.694 106.97 156.943 106.733C157.191 106.496 157.381 106.206 157.511 105.863L161.009 106.094C160.831 106.934 160.467 107.668 159.917 108.295C159.372 108.917 158.668 109.402 157.804 109.751C156.946 110.095 155.954 110.266 154.83 110.266ZM167.339 102.116V110H163.557V96.3636H167.161V98.7695H167.321C167.623 97.9764 168.129 97.3491 168.839 96.8874C169.549 96.4199 170.41 96.1861 171.422 96.1861C172.369 96.1861 173.195 96.3932 173.899 96.8075C174.604 97.2218 175.151 97.8137 175.542 98.5831C175.932 99.3466 176.128 100.258 176.128 101.317V110H172.346V101.992C172.352 101.158 172.139 100.507 171.706 100.039C171.274 99.5656 170.68 99.3288 169.922 99.3288C169.413 99.3288 168.963 99.4383 168.573 99.6573C168.188 99.8763 167.886 100.196 167.667 100.616C167.454 101.03 167.344 101.531 167.339 102.116ZM186.362 96.3636V99.2045H178.15V96.3636H186.362ZM180.014 93.0966H183.796V105.81C183.796 106.159 183.849 106.431 183.956 106.626C184.062 106.816 184.21 106.949 184.4 107.026C184.595 107.103 184.82 107.141 185.074 107.141C185.252 107.141 185.429 107.127 185.607 107.097C185.784 107.061 185.921 107.035 186.015 107.017L186.61 109.831C186.421 109.891 186.154 109.959 185.811 110.036C185.468 110.118 185.051 110.169 184.559 110.186C183.648 110.222 182.849 110.101 182.162 109.822C181.482 109.544 180.952 109.112 180.573 108.526C180.194 107.94 180.008 107.201 180.014 106.307V93.0966ZM87.3647 138.909C87.3647 136.707 87.6577 134.68 88.2437 132.828C88.8355 130.975 89.7381 129.259 90.9514 127.679H94.5647C94.103 128.265 93.6739 128.981 93.2774 129.827C92.8808 130.667 92.5346 131.591 92.2387 132.597C91.9428 133.603 91.7119 134.645 91.5462 135.722C91.3805 136.793 91.2976 137.856 91.2976 138.909C91.2976 140.312 91.4397 141.729 91.7238 143.162C92.0138 144.588 92.4044 145.914 92.8956 147.139C93.3928 148.364 93.9491 149.367 94.5647 150.148H90.9514C89.7381 148.568 88.8355 146.852 88.2437 144.999C87.6577 143.147 87.3647 141.117 87.3647 138.909ZM96.8307 148V129.818H104.111C105.448 129.818 106.564 130.016 107.458 130.413C108.351 130.81 109.023 131.36 109.473 132.064C109.923 132.763 110.148 133.568 110.148 134.479C110.148 135.189 110.005 135.814 109.721 136.352C109.437 136.885 109.047 137.323 108.549 137.666C108.058 138.004 107.496 138.243 106.863 138.385V138.563C107.555 138.592 108.203 138.788 108.807 139.149C109.417 139.51 109.911 140.016 110.29 140.667C110.668 141.312 110.858 142.081 110.858 142.975C110.858 143.94 110.618 144.801 110.139 145.559C109.665 146.31 108.964 146.905 108.035 147.343C107.105 147.781 105.96 148 104.599 148H96.8307ZM100.675 144.857H103.809C104.88 144.857 105.661 144.653 106.152 144.245C106.644 143.83 106.889 143.28 106.889 142.593C106.889 142.09 106.768 141.646 106.525 141.262C106.283 140.877 105.936 140.575 105.487 140.356C105.043 140.137 104.513 140.028 103.898 140.028H100.675V144.857ZM100.675 137.426H103.525C104.051 137.426 104.519 137.335 104.927 137.151C105.342 136.962 105.667 136.696 105.904 136.352C106.147 136.009 106.268 135.598 106.268 135.118C106.268 134.461 106.034 133.932 105.567 133.529C105.105 133.127 104.448 132.925 103.596 132.925H100.675V137.426ZM122.033 142.194V134.364H125.815V148H122.184V145.523H122.042C121.734 146.322 121.222 146.964 120.506 147.45C119.795 147.935 118.928 148.178 117.905 148.178C116.993 148.178 116.191 147.97 115.499 147.556C114.806 147.142 114.265 146.553 113.874 145.789C113.489 145.026 113.294 144.112 113.288 143.046V134.364H117.07V142.371C117.076 143.176 117.292 143.813 117.718 144.28C118.144 144.748 118.715 144.982 119.432 144.982C119.887 144.982 120.313 144.878 120.71 144.671C121.106 144.458 121.426 144.144 121.669 143.73C121.917 143.315 122.039 142.804 122.033 142.194ZM140.186 138.252L136.723 138.465C136.664 138.169 136.537 137.903 136.342 137.666C136.146 137.424 135.889 137.231 135.569 137.089C135.256 136.941 134.88 136.867 134.442 136.867C133.856 136.867 133.362 136.991 132.959 137.24C132.557 137.483 132.355 137.808 132.355 138.217C132.355 138.542 132.486 138.817 132.746 139.042C133.006 139.267 133.453 139.448 134.087 139.584L136.555 140.081C137.88 140.353 138.869 140.791 139.52 141.395C140.171 141.999 140.496 142.792 140.496 143.774C140.496 144.668 140.233 145.452 139.706 146.127C139.185 146.801 138.469 147.328 137.558 147.707C136.652 148.08 135.608 148.266 134.424 148.266C132.619 148.266 131.181 147.891 130.109 147.139C129.044 146.381 128.42 145.351 128.236 144.049L131.956 143.854C132.068 144.404 132.341 144.825 132.773 145.115C133.205 145.399 133.758 145.541 134.433 145.541C135.096 145.541 135.628 145.414 136.031 145.159C136.439 144.899 136.646 144.564 136.652 144.156C136.646 143.813 136.501 143.531 136.217 143.312C135.933 143.088 135.495 142.916 134.903 142.798L132.542 142.327C131.21 142.061 130.219 141.599 129.568 140.942C128.923 140.285 128.6 139.448 128.6 138.43C128.6 137.554 128.837 136.799 129.31 136.166C129.79 135.533 130.461 135.044 131.326 134.701C132.196 134.358 133.214 134.186 134.38 134.186C136.102 134.186 137.457 134.55 138.446 135.278C139.44 136.006 140.02 136.997 140.186 138.252ZM142.878 148V134.364H146.66V148H142.878ZM144.778 132.606C144.215 132.606 143.733 132.419 143.331 132.047C142.934 131.668 142.736 131.215 142.736 130.688C142.736 130.167 142.934 129.721 143.331 129.348C143.733 128.969 144.215 128.779 144.778 128.779C145.34 128.779 145.819 128.969 146.216 129.348C146.618 129.721 146.82 130.167 146.82 130.688C146.82 131.215 146.618 131.668 146.216 132.047C145.819 132.419 145.34 132.606 144.778 132.606ZM153.471 140.116V148H149.689V134.364H153.294V136.77H153.454C153.755 135.976 154.261 135.349 154.972 134.887C155.682 134.42 156.543 134.186 157.555 134.186C158.502 134.186 159.328 134.393 160.032 134.808C160.736 135.222 161.284 135.814 161.674 136.583C162.065 137.347 162.26 138.258 162.26 139.317V148H158.478V139.992C158.484 139.158 158.271 138.507 157.839 138.039C157.407 137.566 156.812 137.329 156.055 137.329C155.546 137.329 155.096 137.438 154.705 137.657C154.321 137.876 154.019 138.196 153.8 138.616C153.587 139.03 153.477 139.531 153.471 140.116ZM171.456 148.266C170.053 148.266 168.846 147.982 167.833 147.414C166.827 146.84 166.052 146.029 165.508 144.982C164.963 143.928 164.691 142.682 164.691 141.244C164.691 139.841 164.963 138.61 165.508 137.551C166.052 136.491 166.818 135.666 167.807 135.074C168.801 134.482 169.967 134.186 171.305 134.186C172.204 134.186 173.042 134.331 173.817 134.621C174.598 134.905 175.279 135.334 175.859 135.908C176.445 136.482 176.901 137.205 177.226 138.075C177.552 138.939 177.715 139.951 177.715 141.111V142.15H166.2V139.806H174.155C174.155 139.261 174.036 138.779 173.799 138.359C173.563 137.938 173.234 137.61 172.814 137.373C172.4 137.131 171.917 137.009 171.367 137.009C170.793 137.009 170.284 137.142 169.84 137.409C169.402 137.669 169.059 138.021 168.81 138.465C168.561 138.903 168.434 139.391 168.428 139.93V142.158C168.428 142.833 168.553 143.416 168.801 143.907C169.056 144.399 169.414 144.777 169.875 145.044C170.337 145.31 170.885 145.443 171.518 145.443C171.938 145.443 172.323 145.384 172.672 145.266C173.021 145.147 173.32 144.97 173.569 144.733C173.817 144.496 174.007 144.206 174.137 143.863L177.635 144.094C177.457 144.934 177.093 145.668 176.543 146.295C175.998 146.917 175.294 147.402 174.43 147.751C173.572 148.095 172.58 148.266 171.456 148.266ZM191.528 138.252L188.066 138.465C188.007 138.169 187.88 137.903 187.684 137.666C187.489 137.424 187.232 137.231 186.912 137.089C186.598 136.941 186.222 136.867 185.784 136.867C185.199 136.867 184.704 136.991 184.302 137.24C183.899 137.483 183.698 137.808 183.698 138.217C183.698 138.542 183.828 138.817 184.089 139.042C184.349 139.267 184.796 139.448 185.429 139.584L187.897 140.081C189.223 140.353 190.212 140.791 190.863 141.395C191.514 141.999 191.839 142.792 191.839 143.774C191.839 144.668 191.576 145.452 191.049 146.127C190.528 146.801 189.812 147.328 188.901 147.707C187.995 148.08 186.95 148.266 185.767 148.266C183.962 148.266 182.523 147.891 181.452 147.139C180.387 146.381 179.762 145.351 179.579 144.049L183.299 143.854C183.411 144.404 183.683 144.825 184.115 145.115C184.548 145.399 185.101 145.541 185.776 145.541C186.438 145.541 186.971 145.414 187.374 145.159C187.782 144.899 187.989 144.564 187.995 144.156C187.989 143.813 187.844 143.531 187.56 143.312C187.276 143.088 186.838 142.916 186.246 142.798L183.885 142.327C182.553 142.061 181.562 141.599 180.911 140.942C180.265 140.285 179.943 139.448 179.943 138.43C179.943 137.554 180.18 136.799 180.653 136.166C181.133 135.533 181.804 135.044 182.668 134.701C183.538 134.358 184.556 134.186 185.722 134.186C187.445 134.186 188.8 134.55 189.788 135.278C190.783 136.006 191.363 136.997 191.528 138.252ZM205.567 138.252L202.104 138.465C202.045 138.169 201.918 137.903 201.722 137.666C201.527 137.424 201.27 137.231 200.95 137.089C200.636 136.941 200.261 136.867 199.823 136.867C199.237 136.867 198.742 136.991 198.34 137.24C197.938 137.483 197.736 137.808 197.736 138.217C197.736 138.542 197.866 138.817 198.127 139.042C198.387 139.267 198.834 139.448 199.467 139.584L201.936 140.081C203.261 140.353 204.25 140.791 204.901 141.395C205.552 141.999 205.877 142.792 205.877 143.774C205.877 144.668 205.614 145.452 205.087 146.127C204.566 146.801 203.85 147.328 202.939 147.707C202.033 148.08 200.989 148.266 199.805 148.266C198 148.266 196.561 147.891 195.49 147.139C194.425 146.381 193.8 145.351 193.617 144.049L197.337 143.854C197.449 144.404 197.721 144.825 198.154 145.115C198.586 145.399 199.139 145.541 199.814 145.541C200.477 145.541 201.009 145.414 201.412 145.159C201.82 144.899 202.027 144.564 202.033 144.156C202.027 143.813 201.882 143.531 201.598 143.312C201.314 143.088 200.876 142.916 200.284 142.798L197.923 142.327C196.591 142.061 195.6 141.599 194.949 140.942C194.304 140.285 193.981 139.448 193.981 138.43C193.981 137.554 194.218 136.799 194.691 136.166C195.171 135.533 195.842 135.044 196.706 134.701C197.576 134.358 198.594 134.186 199.76 134.186C201.483 134.186 202.838 134.55 203.826 135.278C204.821 136.006 205.401 136.997 205.567 138.252ZM214.633 140.711C214.633 142.919 214.337 144.949 213.745 146.801C213.159 148.654 212.26 150.37 211.046 151.951H207.433C207.895 151.365 208.324 150.649 208.72 149.802C209.117 148.956 209.463 148.033 209.759 147.032C210.055 146.026 210.286 144.984 210.452 143.907C210.617 142.83 210.7 141.765 210.7 140.711C210.7 139.309 210.555 137.894 210.265 136.468C209.981 135.035 209.59 133.71 209.093 132.49C208.602 131.265 208.049 130.262 207.433 129.481H211.046C212.26 131.061 213.159 132.777 213.745 134.63C214.337 136.482 214.633 138.51 214.633 140.711Z" fill="#2C2C31"/>
<path d="M428.003 129V110.818H440.254V113.988H431.847V118.32H439.624V121.489H431.847V125.831H440.29V129H428.003ZM447.021 121.116V129H443.239V115.364H446.844V117.77H447.003C447.305 116.976 447.811 116.349 448.522 115.887C449.232 115.42 450.093 115.186 451.105 115.186C452.052 115.186 452.878 115.393 453.582 115.808C454.286 116.222 454.834 116.814 455.224 117.583C455.615 118.347 455.81 119.258 455.81 120.317V129H452.028V120.992C452.034 120.158 451.821 119.507 451.389 119.039C450.957 118.566 450.362 118.329 449.605 118.329C449.096 118.329 448.646 118.438 448.255 118.657C447.87 118.876 447.569 119.196 447.35 119.616C447.137 120.03 447.027 120.531 447.021 121.116ZM464.934 134.398C463.709 134.398 462.659 134.229 461.783 133.892C460.913 133.56 460.22 133.107 459.705 132.533C459.19 131.959 458.856 131.314 458.702 130.598L462.2 130.127C462.307 130.4 462.475 130.654 462.706 130.891C462.937 131.128 463.242 131.317 463.621 131.459C464.005 131.607 464.473 131.681 465.023 131.681C465.846 131.681 466.524 131.48 467.056 131.077C467.595 130.681 467.864 130.015 467.864 129.08V126.585H467.704C467.539 126.964 467.29 127.322 466.959 127.659C466.627 127.997 466.201 128.272 465.68 128.485C465.159 128.698 464.538 128.805 463.816 128.805C462.792 128.805 461.86 128.568 461.019 128.094C460.185 127.615 459.519 126.884 459.022 125.902C458.531 124.913 458.285 123.664 458.285 122.155C458.285 120.61 458.536 119.32 459.04 118.284C459.543 117.249 460.211 116.473 461.046 115.958C461.886 115.444 462.807 115.186 463.807 115.186C464.57 115.186 465.21 115.316 465.725 115.577C466.239 115.831 466.654 116.151 466.967 116.536C467.287 116.914 467.533 117.287 467.704 117.654H467.846V115.364H471.602V129.133C471.602 130.293 471.318 131.264 470.749 132.045C470.181 132.826 469.394 133.412 468.388 133.803C467.388 134.199 466.237 134.398 464.934 134.398ZM465.014 125.964C465.624 125.964 466.139 125.813 466.559 125.511C466.985 125.203 467.311 124.765 467.536 124.197C467.766 123.623 467.882 122.936 467.882 122.137C467.882 121.338 467.769 120.646 467.545 120.06C467.32 119.468 466.994 119.009 466.568 118.684C466.142 118.358 465.624 118.196 465.014 118.196C464.393 118.196 463.869 118.364 463.443 118.702C463.017 119.033 462.694 119.495 462.475 120.087C462.256 120.679 462.147 121.362 462.147 122.137C462.147 122.925 462.256 123.605 462.475 124.179C462.7 124.748 463.023 125.188 463.443 125.502C463.869 125.81 464.393 125.964 465.014 125.964ZM474.611 129V115.364H478.393V129H474.611ZM476.511 113.606C475.949 113.606 475.467 113.419 475.064 113.047C474.668 112.668 474.469 112.215 474.469 111.688C474.469 111.167 474.668 110.721 475.064 110.348C475.467 109.969 475.949 109.779 476.511 109.779C477.073 109.779 477.553 109.969 477.949 110.348C478.352 110.721 478.553 111.167 478.553 111.688C478.553 112.215 478.352 112.668 477.949 113.047C477.553 113.419 477.073 113.606 476.511 113.606ZM485.205 121.116V129H481.423V115.364H485.027V117.77H485.187C485.489 116.976 485.995 116.349 486.705 115.887C487.415 115.42 488.277 115.186 489.289 115.186C490.236 115.186 491.061 115.393 491.765 115.808C492.47 116.222 493.017 116.814 493.408 117.583C493.799 118.347 493.994 119.258 493.994 120.317V129H490.212V120.992C490.218 120.158 490.005 119.507 489.573 119.039C489.141 118.566 488.546 118.329 487.788 118.329C487.279 118.329 486.829 118.438 486.439 118.657C486.054 118.876 485.752 119.196 485.533 119.616C485.32 120.03 485.211 120.531 485.205 121.116ZM503.189 129.266C501.786 129.266 500.579 128.982 499.567 128.414C498.561 127.84 497.785 127.029 497.241 125.982C496.696 124.928 496.424 123.682 496.424 122.244C496.424 120.841 496.696 119.61 497.241 118.551C497.785 117.491 498.552 116.666 499.54 116.074C500.535 115.482 501.701 115.186 503.038 115.186C503.938 115.186 504.775 115.331 505.551 115.621C506.332 115.905 507.012 116.334 507.592 116.908C508.178 117.482 508.634 118.205 508.96 119.075C509.285 119.939 509.448 120.951 509.448 122.111V123.15H497.933V120.806H505.888C505.888 120.261 505.77 119.779 505.533 119.359C505.296 118.938 504.968 118.61 504.547 118.373C504.133 118.131 503.651 118.009 503.1 118.009C502.526 118.009 502.017 118.142 501.573 118.409C501.135 118.669 500.792 119.021 500.543 119.465C500.295 119.903 500.168 120.391 500.162 120.93V123.158C500.162 123.833 500.286 124.416 500.535 124.907C500.789 125.399 501.147 125.777 501.609 126.044C502.07 126.31 502.618 126.443 503.251 126.443C503.671 126.443 504.056 126.384 504.405 126.266C504.755 126.147 505.053 125.97 505.302 125.733C505.551 125.496 505.74 125.206 505.87 124.863L509.368 125.094C509.19 125.934 508.826 126.668 508.276 127.295C507.732 127.917 507.027 128.402 506.163 128.751C505.305 129.095 504.314 129.266 503.189 129.266ZM518.13 129.266C516.728 129.266 515.52 128.982 514.508 128.414C513.502 127.84 512.727 127.029 512.182 125.982C511.638 124.928 511.366 123.682 511.366 122.244C511.366 120.841 511.638 119.61 512.182 118.551C512.727 117.491 513.493 116.666 514.482 116.074C515.476 115.482 516.642 115.186 517.98 115.186C518.879 115.186 519.717 115.331 520.492 115.621C521.273 115.905 521.954 116.334 522.534 116.908C523.12 117.482 523.576 118.205 523.901 119.075C524.227 119.939 524.389 120.951 524.389 122.111V123.15H512.875V120.806H520.829C520.829 120.261 520.711 119.779 520.474 119.359C520.237 118.938 519.909 118.61 519.489 118.373C519.074 118.131 518.592 118.009 518.042 118.009C517.468 118.009 516.959 118.142 516.515 118.409C516.077 118.669 515.733 119.021 515.485 119.465C515.236 119.903 515.109 120.391 515.103 120.93V123.158C515.103 123.833 515.227 124.416 515.476 124.907C515.73 125.399 516.089 125.777 516.55 126.044C517.012 126.31 517.559 126.443 518.193 126.443C518.613 126.443 518.998 126.384 519.347 126.266C519.696 126.147 519.995 125.97 520.243 125.733C520.492 125.496 520.681 125.206 520.812 124.863L524.309 125.094C524.132 125.934 523.768 126.668 523.217 127.295C522.673 127.917 521.969 128.402 521.105 128.751C520.246 129.095 519.255 129.266 518.13 129.266ZM526.857 129V115.364H530.524V117.743H530.666C530.915 116.897 531.332 116.257 531.918 115.825C532.504 115.387 533.178 115.168 533.942 115.168C534.131 115.168 534.335 115.18 534.554 115.204C534.773 115.228 534.966 115.26 535.132 115.301V118.657C534.954 118.604 534.708 118.557 534.395 118.515C534.081 118.474 533.794 118.453 533.534 118.453C532.977 118.453 532.48 118.574 532.042 118.817C531.61 119.054 531.267 119.385 531.012 119.811C530.764 120.238 530.639 120.729 530.639 121.285V129H526.857Z" fill="#2C2C31"/>
</svg>
