<svg width="645" height="240" viewBox="0 0 645 240" fill="none" xmlns="http://www.w3.org/2000/svg">
<rect x="1.5" y="1.5" width="642" height="237" fill="white" stroke="#787DF9" stroke-width="3" stroke-dasharray="9 9"/>
<path d="M200.293 120.293C199.902 120.683 199.902 121.317 200.293 121.707L206.657 128.071C207.047 128.462 207.681 128.462 208.071 128.071C208.462 127.681 208.462 127.047 208.071 126.657L202.414 121L208.071 115.343C208.462 114.953 208.462 114.319 208.071 113.929C207.681 113.538 207.047 113.538 206.657 113.929L200.293 120.293ZM245.207 121.707C245.598 121.317 245.598 120.683 245.207 120.293L238.843 113.929C238.453 113.538 237.819 113.538 237.429 113.929C237.038 114.319 237.038 114.953 237.429 115.343L243.086 121L237.429 126.657C237.038 127.047 237.038 127.681 237.429 128.071C237.819 128.462 238.453 128.462 238.843 128.071L245.207 121.707ZM201 122H244.5V120H201V122Z" fill="#2C2C31"/>
<path d="M421.293 120.293C420.902 120.683 420.902 121.317 421.293 121.707L427.657 128.071C428.047 128.462 428.681 128.462 429.071 128.071C429.462 127.681 429.462 127.047 429.071 126.657L423.414 121L429.071 115.343C429.462 114.953 429.462 114.319 429.071 113.929C428.681 113.538 428.047 113.538 427.657 113.929L421.293 120.293ZM466.207 121.707C466.598 121.317 466.598 120.683 466.207 120.293L459.843 113.929C459.453 113.538 458.819 113.538 458.429 113.929C458.038 114.319 458.038 114.953 458.429 115.343L464.086 121L458.429 126.657C458.038 127.047 458.038 127.681 458.429 128.071C458.819 128.462 459.453 128.462 459.843 128.071L466.207 121.707ZM422 122H465.5V120H422V122Z" fill="#2C2C31"/>
<path d="M82.3066 99.1836H78.4181C78.3471 98.6805 78.2021 98.2337 77.9831 97.843C77.7641 97.4465 77.483 97.1091 77.1397 96.831C76.7964 96.5528 76.3999 96.3397 75.9501 96.1918C75.5062 96.0438 75.0238 95.9698 74.503 95.9698C73.5619 95.9698 72.7422 96.2036 72.0438 96.6712C71.3454 97.1328 70.8039 97.8075 70.4192 98.6953C70.0345 99.5772 69.8421 100.648 69.8421 101.909C69.8421 103.205 70.0345 104.294 70.4192 105.176C70.8098 106.058 71.3543 106.724 72.0527 107.174C72.7511 107.623 73.559 107.848 74.4763 107.848C74.9913 107.848 75.4677 107.78 75.9057 107.644C76.3496 107.508 76.7431 107.31 77.0864 107.049C77.4297 106.783 77.7138 106.46 77.9387 106.082C78.1695 105.703 78.3293 105.271 78.4181 104.786L82.3066 104.803C82.206 105.638 81.9544 106.443 81.552 107.218C81.1554 107.987 80.6198 108.677 79.9451 109.287C79.2763 109.89 78.4773 110.37 77.5481 110.725C76.6248 111.074 75.5802 111.249 74.4142 111.249C72.7925 111.249 71.3425 110.882 70.0641 110.148C68.7916 109.414 67.7854 108.351 67.0456 106.961C66.3117 105.57 65.9447 103.886 65.9447 101.909C65.9447 99.9264 66.3176 98.2396 67.0633 96.8487C67.8091 95.4579 68.8212 94.3984 70.0996 93.6705C71.378 92.9366 72.8162 92.5696 74.4142 92.5696C75.4677 92.5696 76.4443 92.7176 77.3439 93.0135C78.2494 93.3094 79.0514 93.7415 79.7498 94.3097C80.4482 94.8719 81.0164 95.5614 81.4543 96.3782C81.8982 97.195 82.1823 98.1301 82.3066 99.1836ZM88.7741 92.8182V111H84.9921V92.8182H88.7741ZM91.8037 111V97.3636H95.5856V111H91.8037ZM93.7035 95.6058C93.1413 95.6058 92.6589 95.4194 92.2564 95.0465C91.8599 94.6677 91.6616 94.215 91.6616 93.6882C91.6616 93.1674 91.8599 92.7205 92.2564 92.3477C92.6589 91.9689 93.1413 91.7795 93.7035 91.7795C94.2658 91.7795 94.7452 91.9689 95.1417 92.3477C95.5442 92.7205 95.7454 93.1674 95.7454 93.6882C95.7454 94.215 95.5442 94.6677 95.1417 95.0465C94.7452 95.4194 94.2658 95.6058 93.7035 95.6058ZM104.83 111.266C103.427 111.266 102.22 110.982 101.208 110.414C100.201 109.84 99.426 109.029 98.8815 107.982C98.337 106.928 98.0648 105.682 98.0648 104.244C98.0648 102.841 98.337 101.61 98.8815 100.551C99.426 99.4914 100.192 98.6657 101.181 98.0739C102.175 97.482 103.341 97.1861 104.679 97.1861C105.578 97.1861 106.416 97.3311 107.191 97.6211C107.972 97.9052 108.653 98.3343 109.233 98.9084C109.819 99.4825 110.275 100.205 110.6 101.075C110.926 101.939 111.089 102.951 111.089 104.111V105.15H99.574V102.806H107.529C107.529 102.261 107.41 101.779 107.173 101.359C106.937 100.938 106.608 100.61 106.188 100.373C105.774 100.131 105.291 100.009 104.741 100.009C104.167 100.009 103.658 100.142 103.214 100.409C102.776 100.669 102.433 101.021 102.184 101.465C101.936 101.903 101.808 102.391 101.802 102.93V105.158C101.802 105.833 101.927 106.416 102.175 106.907C102.43 107.399 102.788 107.777 103.249 108.044C103.711 108.31 104.259 108.443 104.892 108.443C105.312 108.443 105.697 108.384 106.046 108.266C106.395 108.147 106.694 107.97 106.943 107.733C107.191 107.496 107.381 107.206 107.511 106.863L111.009 107.094C110.831 107.934 110.467 108.668 109.917 109.295C109.372 109.917 108.668 110.402 107.804 110.751C106.946 111.095 105.954 111.266 104.83 111.266ZM117.339 103.116V111H113.557V97.3636H117.161V99.7695H117.321C117.623 98.9764 118.129 98.3491 118.839 97.8874C119.549 97.4199 120.41 97.1861 121.422 97.1861C122.369 97.1861 123.195 97.3932 123.899 97.8075C124.604 98.2218 125.151 98.8137 125.542 99.5831C125.932 100.347 126.128 101.258 126.128 102.317V111H122.346V102.992C122.352 102.158 122.139 101.507 121.706 101.039C121.274 100.566 120.68 100.329 119.922 100.329C119.413 100.329 118.963 100.438 118.573 100.657C118.188 100.876 117.886 101.196 117.667 101.616C117.454 102.03 117.344 102.531 117.339 103.116ZM136.362 97.3636V100.205H128.15V97.3636H136.362ZM130.014 94.0966H133.796V106.81C133.796 107.159 133.849 107.431 133.956 107.626C134.062 107.816 134.21 107.949 134.4 108.026C134.595 108.103 134.82 108.141 135.074 108.141C135.252 108.141 135.429 108.127 135.607 108.097C135.784 108.061 135.921 108.035 136.015 108.017L136.61 110.831C136.421 110.891 136.154 110.959 135.811 111.036C135.468 111.118 135.051 111.169 134.559 111.186C133.648 111.222 132.849 111.101 132.162 110.822C131.482 110.544 130.952 110.112 130.573 109.526C130.194 108.94 130.008 108.201 130.014 107.307V94.0966ZM37.3647 139.909C37.3647 137.707 37.6577 135.68 38.2437 133.828C38.8355 131.975 39.7381 130.259 40.9514 128.679H44.5647C44.103 129.265 43.6739 129.981 43.2774 130.827C42.8808 131.667 42.5346 132.591 42.2387 133.597C41.9428 134.603 41.7119 135.645 41.5462 136.722C41.3805 137.793 41.2976 138.856 41.2976 139.909C41.2976 141.312 41.4397 142.729 41.7238 144.162C42.0138 145.588 42.4044 146.914 42.8956 148.139C43.3928 149.364 43.9491 150.367 44.5647 151.148H40.9514C39.7381 149.568 38.8355 147.852 38.2437 145.999C37.6577 144.147 37.3647 142.117 37.3647 139.909ZM46.8307 149V130.818H54.1106C55.4482 130.818 56.5638 131.016 57.4575 131.413C58.3512 131.81 59.023 132.36 59.4728 133.064C59.9226 133.763 60.1475 134.568 60.1475 135.479C60.1475 136.189 60.0055 136.814 59.7214 137.352C59.4373 137.885 59.0467 138.323 58.5495 138.666C58.0583 139.004 57.496 139.243 56.8627 139.385V139.563C57.5552 139.592 58.2033 139.788 58.807 140.149C59.4166 140.51 59.9108 141.016 60.2896 141.667C60.6683 142.312 60.8577 143.081 60.8577 143.975C60.8577 144.94 60.618 145.801 60.1386 146.559C59.6651 147.31 58.9638 147.905 58.0346 148.343C57.1054 148.781 55.9601 149 54.5989 149H46.8307ZM50.6748 145.857H53.8087C54.88 145.857 55.6612 145.653 56.1525 145.245C56.6437 144.83 56.8893 144.28 56.8893 143.593C56.8893 143.09 56.768 142.646 56.5253 142.262C56.2827 141.877 55.9364 141.575 55.4866 141.356C55.0427 141.137 54.513 141.028 53.8975 141.028H50.6748V145.857ZM50.6748 138.426H53.5246C54.0514 138.426 54.519 138.335 54.9273 138.151C55.3416 137.962 55.6672 137.696 55.9039 137.352C56.1466 137.009 56.2679 136.598 56.2679 136.118C56.2679 135.461 56.0341 134.932 55.5665 134.529C55.1049 134.127 54.4479 133.925 53.5957 133.925H50.6748V138.426ZM72.0327 143.194V135.364H75.8147V149H72.1836V146.523H72.0416C71.7338 147.322 71.2219 147.964 70.5057 148.45C69.7955 148.935 68.9284 149.178 67.9045 149.178C66.9931 149.178 66.1911 148.97 65.4986 148.556C64.8062 148.142 64.2646 147.553 63.874 146.789C63.4893 146.026 63.294 145.112 63.288 144.046V135.364H67.07V143.371C67.0759 144.176 67.2919 144.813 67.7181 145.28C68.1442 145.748 68.7154 145.982 69.4315 145.982C69.8872 145.982 70.3134 145.878 70.7099 145.671C71.1065 145.458 71.4261 145.144 71.6687 144.73C71.9173 144.315 72.0386 143.804 72.0327 143.194ZM90.1857 139.252L86.7233 139.465C86.6641 139.169 86.5369 138.903 86.3416 138.666C86.1463 138.424 85.8888 138.231 85.5692 138.089C85.2555 137.941 84.8797 137.867 84.4417 137.867C83.8558 137.867 83.3616 137.991 82.9591 138.24C82.5567 138.483 82.3554 138.808 82.3554 139.217C82.3554 139.542 82.4856 139.817 82.746 140.042C83.0065 140.267 83.4533 140.448 84.0866 140.584L86.5546 141.081C87.8804 141.353 88.8688 141.791 89.5198 142.395C90.1709 142.999 90.4964 143.792 90.4964 144.774C90.4964 145.668 90.233 146.452 89.7063 147.127C89.1854 147.801 88.4693 148.328 87.5578 148.707C86.6523 149.08 85.6077 149.266 84.424 149.266C82.6188 149.266 81.1806 148.891 80.1093 148.139C79.044 147.381 78.4196 146.351 78.2361 145.049L81.9559 144.854C82.0684 145.404 82.3406 145.825 82.7727 146.115C83.2047 146.399 83.7581 146.541 84.4328 146.541C85.0957 146.541 85.6284 146.414 86.0309 146.159C86.4392 145.899 86.6464 145.564 86.6523 145.156C86.6464 144.813 86.5014 144.531 86.2173 144.312C85.9332 144.088 85.4952 143.916 84.9034 143.798L82.5419 143.327C81.2102 143.061 80.2188 142.599 79.5678 141.942C78.9227 141.285 78.6001 140.448 78.6001 139.43C78.6001 138.554 78.8368 137.799 79.3103 137.166C79.7897 136.533 80.4615 136.044 81.3256 135.701C82.1956 135.358 83.2136 135.186 84.3796 135.186C86.1019 135.186 87.4572 135.55 88.4456 136.278C89.4399 137.006 90.02 137.997 90.1857 139.252ZM92.8779 149V135.364H96.6598V149H92.8779ZM94.7777 133.606C94.2155 133.606 93.7331 133.419 93.3307 133.047C92.9341 132.668 92.7358 132.215 92.7358 131.688C92.7358 131.167 92.9341 130.721 93.3307 130.348C93.7331 129.969 94.2155 129.779 94.7777 129.779C95.34 129.779 95.8194 129.969 96.216 130.348C96.6184 130.721 96.8196 131.167 96.8196 131.688C96.8196 132.215 96.6184 132.668 96.216 133.047C95.8194 133.419 95.34 133.606 94.7777 133.606ZM103.471 141.116V149H99.6894V135.364H103.294V137.77H103.454C103.755 136.976 104.261 136.349 104.972 135.887C105.682 135.42 106.543 135.186 107.555 135.186C108.502 135.186 109.328 135.393 110.032 135.808C110.736 136.222 111.284 136.814 111.674 137.583C112.065 138.347 112.26 139.258 112.26 140.317V149H108.478V140.992C108.484 140.158 108.271 139.507 107.839 139.039C107.407 138.566 106.812 138.329 106.055 138.329C105.546 138.329 105.096 138.438 104.705 138.657C104.321 138.876 104.019 139.196 103.8 139.616C103.587 140.03 103.477 140.531 103.471 141.116ZM121.456 149.266C120.053 149.266 118.846 148.982 117.833 148.414C116.827 147.84 116.052 147.029 115.508 145.982C114.963 144.928 114.691 143.682 114.691 142.244C114.691 140.841 114.963 139.61 115.508 138.551C116.052 137.491 116.818 136.666 117.807 136.074C118.801 135.482 119.967 135.186 121.305 135.186C122.204 135.186 123.042 135.331 123.817 135.621C124.598 135.905 125.279 136.334 125.859 136.908C126.445 137.482 126.901 138.205 127.226 139.075C127.552 139.939 127.715 140.951 127.715 142.111V143.15H116.2V140.806H124.155C124.155 140.261 124.036 139.779 123.799 139.359C123.563 138.938 123.234 138.61 122.814 138.373C122.4 138.131 121.917 138.009 121.367 138.009C120.793 138.009 120.284 138.142 119.84 138.409C119.402 138.669 119.059 139.021 118.81 139.465C118.561 139.903 118.434 140.391 118.428 140.93V143.158C118.428 143.833 118.553 144.416 118.801 144.907C119.056 145.399 119.414 145.777 119.875 146.044C120.337 146.31 120.885 146.443 121.518 146.443C121.938 146.443 122.323 146.384 122.672 146.266C123.021 146.147 123.32 145.97 123.569 145.733C123.817 145.496 124.007 145.206 124.137 144.863L127.635 145.094C127.457 145.934 127.093 146.668 126.543 147.295C125.998 147.917 125.294 148.402 124.43 148.751C123.572 149.095 122.58 149.266 121.456 149.266ZM141.528 139.252L138.066 139.465C138.007 139.169 137.88 138.903 137.684 138.666C137.489 138.424 137.232 138.231 136.912 138.089C136.598 137.941 136.222 137.867 135.784 137.867C135.199 137.867 134.704 137.991 134.302 138.24C133.899 138.483 133.698 138.808 133.698 139.217C133.698 139.542 133.828 139.817 134.089 140.042C134.349 140.267 134.796 140.448 135.429 140.584L137.897 141.081C139.223 141.353 140.212 141.791 140.863 142.395C141.514 142.999 141.839 143.792 141.839 144.774C141.839 145.668 141.576 146.452 141.049 147.127C140.528 147.801 139.812 148.328 138.901 148.707C137.995 149.08 136.95 149.266 135.767 149.266C133.962 149.266 132.523 148.891 131.452 148.139C130.387 147.381 129.762 146.351 129.579 145.049L133.299 144.854C133.411 145.404 133.683 145.825 134.115 146.115C134.548 146.399 135.101 146.541 135.776 146.541C136.438 146.541 136.971 146.414 137.374 146.159C137.782 145.899 137.989 145.564 137.995 145.156C137.989 144.813 137.844 144.531 137.56 144.312C137.276 144.088 136.838 143.916 136.246 143.798L133.885 143.327C132.553 143.061 131.562 142.599 130.911 141.942C130.265 141.285 129.943 140.448 129.943 139.43C129.943 138.554 130.18 137.799 130.653 137.166C131.133 136.533 131.804 136.044 132.668 135.701C133.538 135.358 134.556 135.186 135.722 135.186C137.445 135.186 138.8 135.55 139.788 136.278C140.783 137.006 141.363 137.997 141.528 139.252ZM155.567 139.252L152.104 139.465C152.045 139.169 151.918 138.903 151.722 138.666C151.527 138.424 151.27 138.231 150.95 138.089C150.636 137.941 150.261 137.867 149.823 137.867C149.237 137.867 148.742 137.991 148.34 138.24C147.938 138.483 147.736 138.808 147.736 139.217C147.736 139.542 147.866 139.817 148.127 140.042C148.387 140.267 148.834 140.448 149.467 140.584L151.936 141.081C153.261 141.353 154.25 141.791 154.901 142.395C155.552 142.999 155.877 143.792 155.877 144.774C155.877 145.668 155.614 146.452 155.087 147.127C154.566 147.801 153.85 148.328 152.939 148.707C152.033 149.08 150.989 149.266 149.805 149.266C148 149.266 146.561 148.891 145.49 148.139C144.425 147.381 143.8 146.351 143.617 145.049L147.337 144.854C147.449 145.404 147.721 145.825 148.154 146.115C148.586 146.399 149.139 146.541 149.814 146.541C150.477 146.541 151.009 146.414 151.412 146.159C151.82 145.899 152.027 145.564 152.033 145.156C152.027 144.813 151.882 144.531 151.598 144.312C151.314 144.088 150.876 143.916 150.284 143.798L147.923 143.327C146.591 143.061 145.6 142.599 144.949 141.942C144.304 141.285 143.981 140.448 143.981 139.43C143.981 138.554 144.218 137.799 144.691 137.166C145.171 136.533 145.842 136.044 146.706 135.701C147.576 135.358 148.594 135.186 149.76 135.186C151.483 135.186 152.838 135.55 153.826 136.278C154.821 137.006 155.401 137.997 155.567 139.252ZM164.633 141.711C164.633 143.919 164.337 145.949 163.745 147.801C163.159 149.654 162.26 151.37 161.046 152.951H157.433C157.895 152.365 158.324 151.649 158.72 150.802C159.117 149.956 159.463 149.033 159.759 148.032C160.055 147.026 160.286 145.984 160.452 144.907C160.617 143.83 160.7 142.765 160.7 141.711C160.7 140.309 160.555 138.894 160.265 137.468C159.981 136.035 159.59 134.71 159.093 133.49C158.602 132.265 158.049 131.262 157.433 130.481H161.046C162.26 132.061 163.159 133.777 163.745 135.63C164.337 137.482 164.633 139.51 164.633 141.711Z" fill="#2C2C31"/>
<path d="M280.869 111.818H285.61L290.617 124.034H290.83L295.837 111.818H300.578V130H296.849V118.166H296.698L291.993 129.911H289.454L284.748 118.121H284.598V130H280.869V111.818ZM307.562 130.257C306.692 130.257 305.917 130.107 305.236 129.805C304.556 129.497 304.017 129.044 303.621 128.446C303.23 127.843 303.035 127.091 303.035 126.191C303.035 125.434 303.174 124.798 303.452 124.283C303.73 123.768 304.109 123.353 304.588 123.04C305.068 122.726 305.612 122.489 306.222 122.33C306.837 122.17 307.482 122.057 308.157 121.992C308.95 121.909 309.589 121.832 310.075 121.761C310.56 121.684 310.912 121.572 311.131 121.424C311.35 121.276 311.46 121.057 311.46 120.767V120.714C311.46 120.152 311.282 119.717 310.927 119.409C310.578 119.101 310.081 118.947 309.436 118.947C308.755 118.947 308.213 119.098 307.811 119.4C307.408 119.696 307.142 120.069 307.012 120.518L303.514 120.234C303.692 119.406 304.041 118.69 304.562 118.086C305.082 117.476 305.754 117.009 306.577 116.683C307.405 116.352 308.364 116.186 309.453 116.186C310.211 116.186 310.936 116.275 311.628 116.452C312.327 116.63 312.945 116.905 313.484 117.278C314.028 117.651 314.457 118.13 314.771 118.716C315.085 119.296 315.242 119.992 315.242 120.803V130H311.655V128.109H311.548C311.329 128.535 311.036 128.911 310.67 129.237C310.303 129.556 309.862 129.808 309.347 129.991C308.832 130.169 308.237 130.257 307.562 130.257ZM308.645 127.647C309.202 127.647 309.693 127.538 310.119 127.319C310.545 127.094 310.88 126.792 311.122 126.413C311.365 126.035 311.486 125.605 311.486 125.126V123.679C311.368 123.756 311.205 123.827 310.998 123.892C310.797 123.951 310.569 124.007 310.314 124.061C310.06 124.108 309.805 124.152 309.551 124.194C309.296 124.229 309.066 124.262 308.858 124.292C308.415 124.357 308.027 124.46 307.695 124.602C307.364 124.744 307.107 124.937 306.923 125.179C306.74 125.416 306.648 125.712 306.648 126.067C306.648 126.582 306.834 126.976 307.207 127.248C307.586 127.514 308.065 127.647 308.645 127.647ZM321.958 122.116V130H318.176V116.364H321.78V118.77H321.94C322.242 117.976 322.748 117.349 323.458 116.887C324.168 116.42 325.029 116.186 326.042 116.186C326.988 116.186 327.814 116.393 328.518 116.808C329.223 117.222 329.77 117.814 330.161 118.583C330.551 119.347 330.747 120.258 330.747 121.317V130H326.965V121.992C326.971 121.158 326.758 120.507 326.326 120.039C325.894 119.566 325.299 119.329 324.541 119.329C324.032 119.329 323.582 119.438 323.192 119.657C322.807 119.876 322.505 120.196 322.286 120.616C322.073 121.03 321.964 121.531 321.958 122.116ZM337.616 130.257C336.746 130.257 335.971 130.107 335.29 129.805C334.609 129.497 334.071 129.044 333.674 128.446C333.284 127.843 333.088 127.091 333.088 126.191C333.088 125.434 333.227 124.798 333.506 124.283C333.784 123.768 334.163 123.353 334.642 123.04C335.121 122.726 335.666 122.489 336.275 122.33C336.891 122.17 337.536 122.057 338.211 121.992C339.004 121.909 339.643 121.832 340.128 121.761C340.614 121.684 340.966 121.572 341.185 121.424C341.404 121.276 341.513 121.057 341.513 120.767V120.714C341.513 120.152 341.336 119.717 340.981 119.409C340.631 119.101 340.134 118.947 339.489 118.947C338.809 118.947 338.267 119.098 337.865 119.4C337.462 119.696 337.196 120.069 337.066 120.518L333.568 120.234C333.745 119.406 334.094 118.69 334.615 118.086C335.136 117.476 335.808 117.009 336.631 116.683C337.459 116.352 338.418 116.186 339.507 116.186C340.265 116.186 340.99 116.275 341.682 116.452C342.38 116.63 342.999 116.905 343.538 117.278C344.082 117.651 344.511 118.13 344.825 118.716C345.138 119.296 345.295 119.992 345.295 120.803V130H341.709V128.109H341.602C341.383 128.535 341.09 128.911 340.723 129.237C340.356 129.556 339.915 129.808 339.4 129.991C338.886 130.169 338.291 130.257 337.616 130.257ZM338.699 127.647C339.255 127.647 339.747 127.538 340.173 127.319C340.599 127.094 340.933 126.792 341.176 126.413C341.419 126.035 341.54 125.605 341.54 125.126V123.679C341.422 123.756 341.259 123.827 341.052 123.892C340.85 123.951 340.623 124.007 340.368 124.061C340.114 124.108 339.859 124.152 339.605 124.194C339.35 124.229 339.119 124.262 338.912 124.292C338.468 124.357 338.081 124.46 337.749 124.602C337.418 124.744 337.16 124.937 336.977 125.179C336.793 125.416 336.702 125.712 336.702 126.067C336.702 126.582 336.888 126.976 337.261 127.248C337.64 127.514 338.119 127.647 338.699 127.647ZM354.373 135.398C353.148 135.398 352.097 135.229 351.221 134.892C350.351 134.56 349.659 134.107 349.144 133.533C348.629 132.959 348.295 132.314 348.141 131.598L351.639 131.127C351.745 131.4 351.914 131.654 352.145 131.891C352.375 132.128 352.68 132.317 353.059 132.459C353.444 132.607 353.911 132.681 354.462 132.681C355.284 132.681 355.962 132.48 356.495 132.077C357.033 131.681 357.303 131.015 357.303 130.08V127.585H357.143C356.977 127.964 356.729 128.322 356.397 128.659C356.066 128.997 355.639 129.272 355.119 129.485C354.598 129.698 353.976 129.805 353.254 129.805C352.23 129.805 351.298 129.568 350.458 129.094C349.623 128.615 348.957 127.884 348.46 126.902C347.969 125.913 347.723 124.664 347.723 123.155C347.723 121.61 347.975 120.32 348.478 119.284C348.981 118.249 349.65 117.473 350.484 116.958C351.325 116.444 352.245 116.186 353.245 116.186C354.009 116.186 354.648 116.316 355.163 116.577C355.678 116.831 356.092 117.151 356.406 117.536C356.726 117.914 356.971 118.287 357.143 118.654H357.285V116.364H361.04V130.133C361.04 131.293 360.756 132.264 360.188 133.045C359.62 133.826 358.833 134.412 357.826 134.803C356.826 135.199 355.675 135.398 354.373 135.398ZM354.453 126.964C355.062 126.964 355.577 126.813 355.998 126.511C356.424 126.203 356.749 125.765 356.974 125.197C357.205 124.623 357.32 123.936 357.32 123.137C357.32 122.338 357.208 121.646 356.983 121.06C356.758 120.468 356.433 120.009 356.006 119.684C355.58 119.358 355.062 119.196 354.453 119.196C353.831 119.196 353.308 119.364 352.881 119.702C352.455 120.033 352.133 120.495 351.914 121.087C351.695 121.679 351.585 122.362 351.585 123.137C351.585 123.925 351.695 124.605 351.914 125.179C352.139 125.748 352.461 126.188 352.881 126.502C353.308 126.81 353.831 126.964 354.453 126.964ZM370.264 130.266C368.862 130.266 367.654 129.982 366.642 129.414C365.636 128.84 364.861 128.029 364.316 126.982C363.772 125.928 363.499 124.682 363.499 123.244C363.499 121.841 363.772 120.61 364.316 119.551C364.861 118.491 365.627 117.666 366.615 117.074C367.61 116.482 368.776 116.186 370.113 116.186C371.013 116.186 371.85 116.331 372.626 116.621C373.407 116.905 374.088 117.334 374.668 117.908C375.254 118.482 375.709 119.205 376.035 120.075C376.36 120.939 376.523 121.951 376.523 123.111V124.15H365.009V121.806H372.963C372.963 121.261 372.845 120.779 372.608 120.359C372.371 119.938 372.043 119.61 371.623 119.373C371.208 119.131 370.726 119.009 370.175 119.009C369.601 119.009 369.092 119.142 368.648 119.409C368.211 119.669 367.867 120.021 367.619 120.465C367.37 120.903 367.243 121.391 367.237 121.93V124.158C367.237 124.833 367.361 125.416 367.61 125.907C367.864 126.399 368.222 126.777 368.684 127.044C369.146 127.31 369.693 127.443 370.326 127.443C370.747 127.443 371.131 127.384 371.481 127.266C371.83 127.147 372.129 126.97 372.377 126.733C372.626 126.496 372.815 126.206 372.945 125.863L376.443 126.094C376.266 126.934 375.902 127.668 375.351 128.295C374.807 128.917 374.102 129.402 373.238 129.751C372.38 130.095 371.389 130.266 370.264 130.266ZM378.991 130V116.364H382.658V118.743H382.8C383.048 117.897 383.466 117.257 384.052 116.825C384.637 116.387 385.312 116.168 386.076 116.168C386.265 116.168 386.469 116.18 386.688 116.204C386.907 116.228 387.1 116.26 387.265 116.301V119.657C387.088 119.604 386.842 119.557 386.528 119.515C386.215 119.474 385.928 119.453 385.667 119.453C385.111 119.453 384.614 119.574 384.176 119.817C383.744 120.054 383.4 120.385 383.146 120.811C382.897 121.238 382.773 121.729 382.773 122.285V130H378.991Z" fill="#2C2C31"/>
<path d="M502.003 130V111.818H514.254V114.988H505.847V119.32H513.624V122.489H505.847V126.831H514.29V130H502.003ZM521.021 122.116V130H517.239V116.364H520.844V118.77H521.003C521.305 117.976 521.811 117.349 522.522 116.887C523.232 116.42 524.093 116.186 525.105 116.186C526.052 116.186 526.878 116.393 527.582 116.808C528.286 117.222 528.834 117.814 529.224 118.583C529.615 119.347 529.81 120.258 529.81 121.317V130H526.028V121.992C526.034 121.158 525.821 120.507 525.389 120.039C524.957 119.566 524.362 119.329 523.605 119.329C523.096 119.329 522.646 119.438 522.255 119.657C521.87 119.876 521.569 120.196 521.35 120.616C521.137 121.03 521.027 121.531 521.021 122.116ZM538.934 135.398C537.709 135.398 536.659 135.229 535.783 134.892C534.913 134.56 534.22 134.107 533.705 133.533C533.19 132.959 532.856 132.314 532.702 131.598L536.2 131.127C536.307 131.4 536.475 131.654 536.706 131.891C536.937 132.128 537.242 132.317 537.621 132.459C538.005 132.607 538.473 132.681 539.023 132.681C539.846 132.681 540.524 132.48 541.056 132.077C541.595 131.681 541.864 131.015 541.864 130.08V127.585H541.704C541.539 127.964 541.29 128.322 540.959 128.659C540.627 128.997 540.201 129.272 539.68 129.485C539.159 129.698 538.538 129.805 537.816 129.805C536.792 129.805 535.86 129.568 535.019 129.094C534.185 128.615 533.519 127.884 533.022 126.902C532.531 125.913 532.285 124.664 532.285 123.155C532.285 121.61 532.536 120.32 533.04 119.284C533.543 118.249 534.211 117.473 535.046 116.958C535.886 116.444 536.807 116.186 537.807 116.186C538.57 116.186 539.21 116.316 539.725 116.577C540.239 116.831 540.654 117.151 540.967 117.536C541.287 117.914 541.533 118.287 541.704 118.654H541.846V116.364H545.602V130.133C545.602 131.293 545.318 132.264 544.749 133.045C544.181 133.826 543.394 134.412 542.388 134.803C541.388 135.199 540.237 135.398 538.934 135.398ZM539.014 126.964C539.624 126.964 540.139 126.813 540.559 126.511C540.985 126.203 541.311 125.765 541.536 125.197C541.766 124.623 541.882 123.936 541.882 123.137C541.882 122.338 541.769 121.646 541.545 121.06C541.32 120.468 540.994 120.009 540.568 119.684C540.142 119.358 539.624 119.196 539.014 119.196C538.393 119.196 537.869 119.364 537.443 119.702C537.017 120.033 536.694 120.495 536.475 121.087C536.256 121.679 536.147 122.362 536.147 123.137C536.147 123.925 536.256 124.605 536.475 125.179C536.7 125.748 537.023 126.188 537.443 126.502C537.869 126.81 538.393 126.964 539.014 126.964ZM548.611 130V116.364H552.393V130H548.611ZM550.511 114.606C549.949 114.606 549.467 114.419 549.064 114.047C548.668 113.668 548.469 113.215 548.469 112.688C548.469 112.167 548.668 111.721 549.064 111.348C549.467 110.969 549.949 110.779 550.511 110.779C551.073 110.779 551.553 110.969 551.949 111.348C552.352 111.721 552.553 112.167 552.553 112.688C552.553 113.215 552.352 113.668 551.949 114.047C551.553 114.419 551.073 114.606 550.511 114.606ZM559.205 122.116V130H555.423V116.364H559.027V118.77H559.187C559.489 117.976 559.995 117.349 560.705 116.887C561.415 116.42 562.277 116.186 563.289 116.186C564.236 116.186 565.061 116.393 565.765 116.808C566.47 117.222 567.017 117.814 567.408 118.583C567.799 119.347 567.994 120.258 567.994 121.317V130H564.212V121.992C564.218 121.158 564.005 120.507 563.573 120.039C563.141 119.566 562.546 119.329 561.788 119.329C561.279 119.329 560.829 119.438 560.439 119.657C560.054 119.876 559.752 120.196 559.533 120.616C559.32 121.03 559.211 121.531 559.205 122.116ZM577.189 130.266C575.786 130.266 574.579 129.982 573.567 129.414C572.561 128.84 571.785 128.029 571.241 126.982C570.696 125.928 570.424 124.682 570.424 123.244C570.424 121.841 570.696 120.61 571.241 119.551C571.785 118.491 572.552 117.666 573.54 117.074C574.535 116.482 575.701 116.186 577.038 116.186C577.938 116.186 578.775 116.331 579.551 116.621C580.332 116.905 581.012 117.334 581.592 117.908C582.178 118.482 582.634 119.205 582.96 120.075C583.285 120.939 583.448 121.951 583.448 123.111V124.15H571.933V121.806H579.888C579.888 121.261 579.77 120.779 579.533 120.359C579.296 119.938 578.968 119.61 578.547 119.373C578.133 119.131 577.651 119.009 577.1 119.009C576.526 119.009 576.017 119.142 575.573 119.409C575.135 119.669 574.792 120.021 574.543 120.465C574.295 120.903 574.168 121.391 574.162 121.93V124.158C574.162 124.833 574.286 125.416 574.535 125.907C574.789 126.399 575.147 126.777 575.609 127.044C576.07 127.31 576.618 127.443 577.251 127.443C577.671 127.443 578.056 127.384 578.405 127.266C578.755 127.147 579.053 126.97 579.302 126.733C579.551 126.496 579.74 126.206 579.87 125.863L583.368 126.094C583.19 126.934 582.826 127.668 582.276 128.295C581.732 128.917 581.027 129.402 580.163 129.751C579.305 130.095 578.314 130.266 577.189 130.266ZM592.13 130.266C590.728 130.266 589.52 129.982 588.508 129.414C587.502 128.84 586.727 128.029 586.182 126.982C585.638 125.928 585.366 124.682 585.366 123.244C585.366 121.841 585.638 120.61 586.182 119.551C586.727 118.491 587.493 117.666 588.482 117.074C589.476 116.482 590.642 116.186 591.98 116.186C592.879 116.186 593.717 116.331 594.492 116.621C595.273 116.905 595.954 117.334 596.534 117.908C597.12 118.482 597.576 119.205 597.901 120.075C598.227 120.939 598.389 121.951 598.389 123.111V124.15H586.875V121.806H594.829C594.829 121.261 594.711 120.779 594.474 120.359C594.237 119.938 593.909 119.61 593.489 119.373C593.074 119.131 592.592 119.009 592.042 119.009C591.468 119.009 590.959 119.142 590.515 119.409C590.077 119.669 589.733 120.021 589.485 120.465C589.236 120.903 589.109 121.391 589.103 121.93V124.158C589.103 124.833 589.227 125.416 589.476 125.907C589.73 126.399 590.089 126.777 590.55 127.044C591.012 127.31 591.559 127.443 592.193 127.443C592.613 127.443 592.998 127.384 593.347 127.266C593.696 127.147 593.995 126.97 594.243 126.733C594.492 126.496 594.681 126.206 594.812 125.863L598.309 126.094C598.132 126.934 597.768 127.668 597.217 128.295C596.673 128.917 595.969 129.402 595.105 129.751C594.246 130.095 593.255 130.266 592.13 130.266ZM600.857 130V116.364H604.524V118.743H604.666C604.915 117.897 605.332 117.257 605.918 116.825C606.504 116.387 607.178 116.168 607.942 116.168C608.131 116.168 608.335 116.18 608.554 116.204C608.773 116.228 608.966 116.26 609.132 116.301V119.657C608.954 119.604 608.708 119.557 608.395 119.515C608.081 119.474 607.794 119.453 607.534 119.453C606.977 119.453 606.48 119.574 606.042 119.817C605.61 120.054 605.267 120.385 605.012 120.811C604.764 121.238 604.639 121.729 604.639 122.285V130H600.857Z" fill="#2C2C31"/>
</svg>
